<?xml version="1.0" encoding="UTF-8" standalone="no"?>
<!DOCTYPE svg PUBLIC "-//W3C//DTD SVG 1.1//EN"
 "http://www.w3.org/Graphics/SVG/1.1/DTD/svg11.dtd">
<!-- Generated by graphviz version 2.40.1 (20161225.0304)
 -->
<!-- Title: snakemake_dag Pages: 1 -->
<svg width="2464pt" height="404pt"
 viewBox="0.00 0.00 2463.50 404.00" xmlns="http://www.w3.org/2000/svg" xmlns:xlink="http://www.w3.org/1999/xlink">
<g id="graph0" class="graph" transform="scale(1 1) rotate(0) translate(4 400)">
<title>snakemake_dag</title>
<polygon fill="#ffffff" stroke="transparent" points="-4,4 -4,-400 2459.5,-400 2459.5,4 -4,4"/>
<!-- 0 -->
<g id="node1" class="node">
<title>0</title>
<path fill="none" stroke="#70d856" stroke-width="2" d="M1790.5,-36C1790.5,-36 1760.5,-36 1760.5,-36 1754.5,-36 1748.5,-30 1748.5,-24 1748.5,-24 1748.5,-12 1748.5,-12 1748.5,-6 1754.5,0 1760.5,0 1760.5,0 1790.5,0 1790.5,0 1796.5,0 1802.5,-6 1802.5,-12 1802.5,-12 1802.5,-24 1802.5,-24 1802.5,-30 1796.5,-36 1790.5,-36"/>
<text text-anchor="middle" x="1775.5" y="-15" font-family="sans" font-size="10.00" fill="#000000">all</text>
</g>
<!-- 1 -->
<g id="node2" class="node">
<title>1</title>
<path fill="none" stroke="#d8b456" stroke-width="2" d="M705.5,-108C705.5,-108 641.5,-108 641.5,-108 635.5,-108 629.5,-102 629.5,-96 629.5,-96 629.5,-84 629.5,-84 629.5,-78 635.5,-72 641.5,-72 641.5,-72 705.5,-72 705.5,-72 711.5,-72 717.5,-78 717.5,-84 717.5,-84 717.5,-96 717.5,-96 717.5,-102 711.5,-108 705.5,-108"/>
<text text-anchor="middle" x="673.5" y="-87" font-family="sans" font-size="10.00" fill="#000000">featurecounts</text>
</g>
<!-- 1&#45;&gt;0 -->
<g id="edge1" class="edge">
<title>1&#45;&gt;0</title>
<path fill="none" stroke="#c0c0c0" stroke-width="2" d="M717.7216,-87.1108C897.4575,-75.3676 1571.5588,-31.3247 1738.1134,-20.4427"/>
<polygon fill="#c0c0c0" stroke="#c0c0c0" stroke-width="2" points="1738.5889,-23.9192 1748.3394,-19.7746 1738.1325,-16.9341 1738.5889,-23.9192"/>
</g>
<!-- 2 -->
<g id="node3" class="node">
<title>2</title>
<path fill="none" stroke="#56b1d8" stroke-width="2" d="M75,-180C75,-180 12,-180 12,-180 6,-180 0,-174 0,-168 0,-168 0,-156 0,-156 0,-150 6,-144 12,-144 12,-144 75,-144 75,-144 81,-144 87,-150 87,-156 87,-156 87,-168 87,-168 87,-174 81,-180 75,-180"/>
<text text-anchor="middle" x="43.5" y="-159" font-family="sans" font-size="10.00" fill="#000000">samtools_sort</text>
</g>
<!-- 2&#45;&gt;1 -->
<g id="edge14" class="edge">
<title>2&#45;&gt;1</title>
<path fill="none" stroke="#c0c0c0" stroke-width="2" d="M87.2622,-146.0234C90.0307,-145.2706 92.7923,-144.5862 95.5,-144 194.6622,-122.5324 495.3713,-101.4306 619.2631,-93.3981"/>
<polygon fill="#c0c0c0" stroke="#c0c0c0" stroke-width="2" points="619.5301,-96.8882 629.2841,-92.7519 619.0796,-89.9028 619.5301,-96.8882"/>
</g>
<!-- 3 -->
<g id="node4" class="node">
<title>3</title>
<path fill="none" stroke="#d85656" stroke-width="2" d="M115.5,-252C115.5,-252 61.5,-252 61.5,-252 55.5,-252 49.5,-246 49.5,-240 49.5,-240 49.5,-228 49.5,-228 49.5,-222 55.5,-216 61.5,-216 61.5,-216 115.5,-216 115.5,-216 121.5,-216 127.5,-222 127.5,-228 127.5,-228 127.5,-240 127.5,-240 127.5,-246 121.5,-252 115.5,-252"/>
<text text-anchor="middle" x="88.5" y="-231" font-family="sans" font-size="10.00" fill="#000000">hisat2_align</text>
</g>
<!-- 3&#45;&gt;2 -->
<g id="edge26" class="edge">
<title>3&#45;&gt;2</title>
<path fill="none" stroke="#c0c0c0" stroke-width="2" d="M77.1446,-215.8314C72.0674,-207.7079 65.9773,-197.9637 60.3824,-189.0118"/>
<polygon fill="#c0c0c0" stroke="#c0c0c0" stroke-width="2" points="63.2763,-187.0383 55.0083,-180.4133 57.3403,-190.7483 63.2763,-187.0383"/>
</g>
<!-- 4 -->
<g id="node5" class="node">
<title>4</title>
<path fill="none" stroke="#d88556" stroke-width="2" d="M497.5,-324C497.5,-324 395.5,-324 395.5,-324 389.5,-324 383.5,-318 383.5,-312 383.5,-312 383.5,-300 383.5,-300 383.5,-294 389.5,-288 395.5,-288 395.5,-288 497.5,-288 497.5,-288 503.5,-288 509.5,-294 509.5,-300 509.5,-300 509.5,-312 509.5,-312 509.5,-318 503.5,-324 497.5,-324"/>
<text text-anchor="middle" x="446.5" y="-309" font-family="sans" font-size="10.00" fill="#000000">fastp</text>
<text text-anchor="middle" x="446.5" y="-297" font-family="sans" font-size="10.00" fill="#000000">sample: SRR3707574</text>
</g>
<!-- 4&#45;&gt;3 -->
<g id="edge27" class="edge">
<title>4&#45;&gt;3</title>
<path fill="none" stroke="#c0c0c0" stroke-width="2" d="M383.2707,-290.0358C379.9724,-289.32 376.7007,-288.6363 373.5,-288 272.167,-267.8541 241.4518,-278.1756 137.5297,-251.9741"/>
<polygon fill="#c0c0c0" stroke="#c0c0c0" stroke-width="2" points="138.1353,-248.516 127.5784,-249.4114 136.3896,-255.2948 138.1353,-248.516"/>
</g>
<!-- 39 -->
<g id="node40" class="node">
<title>39</title>
<path fill="none" stroke="#56d89a" stroke-width="2" d="M1277.5,-252C1277.5,-252 1213.5,-252 1213.5,-252 1207.5,-252 1201.5,-246 1201.5,-240 1201.5,-240 1201.5,-228 1201.5,-228 1201.5,-222 1207.5,-216 1213.5,-216 1213.5,-216 1277.5,-216 1277.5,-216 1283.5,-216 1289.5,-222 1289.5,-228 1289.5,-228 1289.5,-240 1289.5,-240 1289.5,-246 1283.5,-252 1277.5,-252"/>
<text text-anchor="middle" x="1245.5" y="-231" font-family="sans" font-size="10.00" fill="#000000">salmon_quant</text>
</g>
<!-- 4&#45;&gt;39 -->
<g id="edge62" class="edge">
<title>4&#45;&gt;39</title>
<path fill="none" stroke="#c0c0c0" stroke-width="2" d="M509.578,-289.5043C512.5843,-288.947 515.5694,-288.4404 518.5,-288 811.8196,-243.918 896.051,-307.3127 1191.3538,-251.886"/>
<polygon fill="#c0c0c0" stroke="#c0c0c0" stroke-width="2" points="1192.3312,-255.2627 1201.4983,-249.951 1191.0196,-248.3867 1192.3312,-255.2627"/>
</g>
<!-- 5 -->
<g id="node6" class="node">
<title>5</title>
<path fill="none" stroke="#56d86b" stroke-width="2" d="M353,-324C353,-324 296,-324 296,-324 290,-324 284,-318 284,-312 284,-312 284,-300 284,-300 284,-294 290,-288 296,-288 296,-288 353,-288 353,-288 359,-288 365,-294 365,-300 365,-300 365,-312 365,-312 365,-318 359,-324 353,-324"/>
<text text-anchor="middle" x="324.5" y="-303" font-family="sans" font-size="10.00" fill="#000000">hisat2_index</text>
</g>
<!-- 5&#45;&gt;3 -->
<g id="edge28" class="edge">
<title>5&#45;&gt;3</title>
<path fill="none" stroke="#c0c0c0" stroke-width="2" d="M283.8768,-295.3288C247.7004,-285.6039 193.1696,-270.403 137.3925,-252.1815"/>
<polygon fill="#c0c0c0" stroke="#c0c0c0" stroke-width="2" points="138.296,-248.7942 127.703,-248.9893 136.1056,-255.4427 138.296,-248.7942"/>
</g>
<!-- 7 -->
<g id="node8" class="node">
<title>7</title>
<path fill="none" stroke="#d85656" stroke-width="2" d="M211.5,-252C211.5,-252 157.5,-252 157.5,-252 151.5,-252 145.5,-246 145.5,-240 145.5,-240 145.5,-228 145.5,-228 145.5,-222 151.5,-216 157.5,-216 157.5,-216 211.5,-216 211.5,-216 217.5,-216 223.5,-222 223.5,-228 223.5,-228 223.5,-240 223.5,-240 223.5,-246 217.5,-252 211.5,-252"/>
<text text-anchor="middle" x="184.5" y="-231" font-family="sans" font-size="10.00" fill="#000000">hisat2_align</text>
</g>
<!-- 5&#45;&gt;7 -->
<g id="edge31" class="edge">
<title>5&#45;&gt;7</title>
<path fill="none" stroke="#c0c0c0" stroke-width="2" d="M289.1721,-287.8314C270.8507,-278.4089 248.2898,-266.8062 228.8105,-256.7883"/>
<polygon fill="#c0c0c0" stroke="#c0c0c0" stroke-width="2" points="230.3102,-253.6239 219.8166,-252.1628 227.1088,-259.8489 230.3102,-253.6239"/>
</g>
<!-- 10 -->
<g id="node11" class="node">
<title>10</title>
<path fill="none" stroke="#d85656" stroke-width="2" d="M307.5,-252C307.5,-252 253.5,-252 253.5,-252 247.5,-252 241.5,-246 241.5,-240 241.5,-240 241.5,-228 241.5,-228 241.5,-222 247.5,-216 253.5,-216 253.5,-216 307.5,-216 307.5,-216 313.5,-216 319.5,-222 319.5,-228 319.5,-228 319.5,-240 319.5,-240 319.5,-246 313.5,-252 307.5,-252"/>
<text text-anchor="middle" x="280.5" y="-231" font-family="sans" font-size="10.00" fill="#000000">hisat2_align</text>
</g>
<!-- 5&#45;&gt;10 -->
<g id="edge34" class="edge">
<title>5&#45;&gt;10</title>
<path fill="none" stroke="#c0c0c0" stroke-width="2" d="M313.3969,-287.8314C308.4326,-279.7079 302.4778,-269.9637 297.0072,-261.0118"/>
<polygon fill="#c0c0c0" stroke="#c0c0c0" stroke-width="2" points="299.9536,-259.121 291.7526,-252.4133 293.9806,-262.7712 299.9536,-259.121"/>
</g>
<!-- 13 -->
<g id="node14" class="node">
<title>13</title>
<path fill="none" stroke="#d85656" stroke-width="2" d="M403.5,-252C403.5,-252 349.5,-252 349.5,-252 343.5,-252 337.5,-246 337.5,-240 337.5,-240 337.5,-228 337.5,-228 337.5,-222 343.5,-216 349.5,-216 349.5,-216 403.5,-216 403.5,-216 409.5,-216 415.5,-222 415.5,-228 415.5,-228 415.5,-240 415.5,-240 415.5,-246 409.5,-252 403.5,-252"/>
<text text-anchor="middle" x="376.5" y="-231" font-family="sans" font-size="10.00" fill="#000000">hisat2_align</text>
</g>
<!-- 5&#45;&gt;13 -->
<g id="edge37" class="edge">
<title>5&#45;&gt;13</title>
<path fill="none" stroke="#c0c0c0" stroke-width="2" d="M337.6218,-287.8314C343.5499,-279.6232 350.6729,-269.7606 357.1933,-260.7323"/>
<polygon fill="#c0c0c0" stroke="#c0c0c0" stroke-width="2" points="360.184,-262.5693 363.2015,-252.4133 354.5092,-258.4708 360.184,-262.5693"/>
</g>
<!-- 16 -->
<g id="node17" class="node">
<title>16</title>
<path fill="none" stroke="#d85656" stroke-width="2" d="M499.5,-252C499.5,-252 445.5,-252 445.5,-252 439.5,-252 433.5,-246 433.5,-240 433.5,-240 433.5,-228 433.5,-228 433.5,-222 439.5,-216 445.5,-216 445.5,-216 499.5,-216 499.5,-216 505.5,-216 511.5,-222 511.5,-228 511.5,-228 511.5,-240 511.5,-240 511.5,-246 505.5,-252 499.5,-252"/>
<text text-anchor="middle" x="472.5" y="-231" font-family="sans" font-size="10.00" fill="#000000">hisat2_align</text>
</g>
<!-- 5&#45;&gt;16 -->
<g id="edge40" class="edge">
<title>5&#45;&gt;16</title>
<path fill="none" stroke="#c0c0c0" stroke-width="2" d="M361.8466,-287.8314C381.3769,-278.3302 405.4641,-266.6121 426.1731,-256.5374"/>
<polygon fill="#c0c0c0" stroke="#c0c0c0" stroke-width="2" points="427.9607,-259.56 435.4219,-252.038 424.8984,-253.2654 427.9607,-259.56"/>
</g>
<!-- 19 -->
<g id="node20" class="node">
<title>19</title>
<path fill="none" stroke="#d85656" stroke-width="2" d="M595.5,-252C595.5,-252 541.5,-252 541.5,-252 535.5,-252 529.5,-246 529.5,-240 529.5,-240 529.5,-228 529.5,-228 529.5,-222 535.5,-216 541.5,-216 541.5,-216 595.5,-216 595.5,-216 601.5,-216 607.5,-222 607.5,-228 607.5,-228 607.5,-240 607.5,-240 607.5,-246 601.5,-252 595.5,-252"/>
<text text-anchor="middle" x="568.5" y="-231" font-family="sans" font-size="10.00" fill="#000000">hisat2_align</text>
</g>
<!-- 5&#45;&gt;19 -->
<g id="edge43" class="edge">
<title>5&#45;&gt;19</title>
<path fill="none" stroke="#c0c0c0" stroke-width="2" d="M365.0414,-291.0071C368.2289,-289.9502 371.4092,-288.9347 374.5,-288 435.4728,-269.562 454.8522,-271.5246 519.4649,-252.1336"/>
<polygon fill="#c0c0c0" stroke="#c0c0c0" stroke-width="2" points="520.7984,-255.3858 529.3365,-249.1127 518.75,-248.6922 520.7984,-255.3858"/>
</g>
<!-- 22 -->
<g id="node23" class="node">
<title>22</title>
<path fill="none" stroke="#d85656" stroke-width="2" d="M691.5,-252C691.5,-252 637.5,-252 637.5,-252 631.5,-252 625.5,-246 625.5,-240 625.5,-240 625.5,-228 625.5,-228 625.5,-222 631.5,-216 637.5,-216 637.5,-216 691.5,-216 691.5,-216 697.5,-216 703.5,-222 703.5,-228 703.5,-228 703.5,-240 703.5,-240 703.5,-246 697.5,-252 691.5,-252"/>
<text text-anchor="middle" x="664.5" y="-231" font-family="sans" font-size="10.00" fill="#000000">hisat2_align</text>
</g>
<!-- 5&#45;&gt;22 -->
<g id="edge46" class="edge">
<title>5&#45;&gt;22</title>
<path fill="none" stroke="#c0c0c0" stroke-width="2" d="M365.2257,-290.5958C368.3422,-289.6456 371.4581,-288.7658 374.5,-288 476.8598,-262.2319 509.3321,-278.2378 615.597,-251.9222"/>
<polygon fill="#c0c0c0" stroke="#c0c0c0" stroke-width="2" points="616.5962,-255.2796 625.4242,-249.4215 614.8699,-248.4958 616.5962,-255.2796"/>
</g>
<!-- 25 -->
<g id="node26" class="node">
<title>25</title>
<path fill="none" stroke="#d85656" stroke-width="2" d="M787.5,-252C787.5,-252 733.5,-252 733.5,-252 727.5,-252 721.5,-246 721.5,-240 721.5,-240 721.5,-228 721.5,-228 721.5,-222 727.5,-216 733.5,-216 733.5,-216 787.5,-216 787.5,-216 793.5,-216 799.5,-222 799.5,-228 799.5,-228 799.5,-240 799.5,-240 799.5,-246 793.5,-252 787.5,-252"/>
<text text-anchor="middle" x="760.5" y="-231" font-family="sans" font-size="10.00" fill="#000000">hisat2_align</text>
</g>
<!-- 5&#45;&gt;25 -->
<g id="edge49" class="edge">
<title>5&#45;&gt;25</title>
<path fill="none" stroke="#c0c0c0" stroke-width="2" d="M365.1913,-290.4528C368.3158,-289.5357 371.4428,-288.7024 374.5,-288 518.5726,-254.8991 563.563,-285.4285 711.559,-251.8641"/>
<polygon fill="#c0c0c0" stroke="#c0c0c0" stroke-width="2" points="712.5125,-255.2358 721.4583,-249.5593 710.9251,-248.4182 712.5125,-255.2358"/>
</g>
<!-- 28 -->
<g id="node29" class="node">
<title>28</title>
<path fill="none" stroke="#d85656" stroke-width="2" d="M883.5,-252C883.5,-252 829.5,-252 829.5,-252 823.5,-252 817.5,-246 817.5,-240 817.5,-240 817.5,-228 817.5,-228 817.5,-222 823.5,-216 829.5,-216 829.5,-216 883.5,-216 883.5,-216 889.5,-216 895.5,-222 895.5,-228 895.5,-228 895.5,-240 895.5,-240 895.5,-246 889.5,-252 883.5,-252"/>
<text text-anchor="middle" x="856.5" y="-231" font-family="sans" font-size="10.00" fill="#000000">hisat2_align</text>
</g>
<!-- 5&#45;&gt;28 -->
<g id="edge52" class="edge">
<title>5&#45;&gt;28</title>
<path fill="none" stroke="#c0c0c0" stroke-width="2" d="M365.1733,-290.3722C368.3019,-289.4737 371.4348,-288.6666 374.5,-288 560.3976,-247.5686 617.6926,-292.7849 807.4565,-251.8511"/>
<polygon fill="#c0c0c0" stroke="#c0c0c0" stroke-width="2" points="808.4671,-255.2123 817.4762,-249.6369 806.9566,-248.3772 808.4671,-255.2123"/>
</g>
<!-- 31 -->
<g id="node32" class="node">
<title>31</title>
<path fill="none" stroke="#d85656" stroke-width="2" d="M979.5,-252C979.5,-252 925.5,-252 925.5,-252 919.5,-252 913.5,-246 913.5,-240 913.5,-240 913.5,-228 913.5,-228 913.5,-222 919.5,-216 925.5,-216 925.5,-216 979.5,-216 979.5,-216 985.5,-216 991.5,-222 991.5,-228 991.5,-228 991.5,-240 991.5,-240 991.5,-246 985.5,-252 979.5,-252"/>
<text text-anchor="middle" x="952.5" y="-231" font-family="sans" font-size="10.00" fill="#000000">hisat2_align</text>
</g>
<!-- 5&#45;&gt;31 -->
<g id="edge55" class="edge">
<title>5&#45;&gt;31</title>
<path fill="none" stroke="#c0c0c0" stroke-width="2" d="M365.1622,-290.3205C368.2934,-289.434 371.4299,-288.6437 374.5,-288 602.3012,-240.2341 671.7885,-300.2319 903.4054,-251.8397"/>
<polygon fill="#c0c0c0" stroke="#c0c0c0" stroke-width="2" points="904.4387,-255.198 913.4872,-249.6867 902.9768,-248.3524 904.4387,-255.198"/>
</g>
<!-- 34 -->
<g id="node35" class="node">
<title>34</title>
<path fill="none" stroke="#d85656" stroke-width="2" d="M1075.5,-252C1075.5,-252 1021.5,-252 1021.5,-252 1015.5,-252 1009.5,-246 1009.5,-240 1009.5,-240 1009.5,-228 1009.5,-228 1009.5,-222 1015.5,-216 1021.5,-216 1021.5,-216 1075.5,-216 1075.5,-216 1081.5,-216 1087.5,-222 1087.5,-228 1087.5,-228 1087.5,-240 1087.5,-240 1087.5,-246 1081.5,-252 1075.5,-252"/>
<text text-anchor="middle" x="1048.5" y="-231" font-family="sans" font-size="10.00" fill="#000000">hisat2_align</text>
</g>
<!-- 5&#45;&gt;34 -->
<g id="edge58" class="edge">
<title>5&#45;&gt;34</title>
<path fill="none" stroke="#c0c0c0" stroke-width="2" d="M365.1548,-290.2845C368.2877,-289.4063 371.4267,-288.6278 374.5,-288 644.3437,-232.8784 725.9228,-307.7834 999.6747,-251.7696"/>
<polygon fill="#c0c0c0" stroke="#c0c0c0" stroke-width="2" points="1000.42,-255.1896 1009.4946,-249.7213 998.9906,-248.337 1000.42,-255.1896"/>
</g>
<!-- 37 -->
<g id="node38" class="node">
<title>37</title>
<path fill="none" stroke="#d85656" stroke-width="2" d="M1171.5,-252C1171.5,-252 1117.5,-252 1117.5,-252 1111.5,-252 1105.5,-246 1105.5,-240 1105.5,-240 1105.5,-228 1105.5,-228 1105.5,-222 1111.5,-216 1117.5,-216 1117.5,-216 1171.5,-216 1171.5,-216 1177.5,-216 1183.5,-222 1183.5,-228 1183.5,-228 1183.5,-240 1183.5,-240 1183.5,-246 1177.5,-252 1171.5,-252"/>
<text text-anchor="middle" x="1144.5" y="-231" font-family="sans" font-size="10.00" fill="#000000">hisat2_align</text>
</g>
<!-- 5&#45;&gt;37 -->
<g id="edge61" class="edge">
<title>5&#45;&gt;37</title>
<path fill="none" stroke="#c0c0c0" stroke-width="2" d="M365.1494,-290.2581C368.2836,-289.386 371.4243,-288.6161 374.5,-288 686.2996,-225.5453 779.9763,-315.3058 1095.6177,-251.7712"/>
<polygon fill="#c0c0c0" stroke="#c0c0c0" stroke-width="2" points="1096.4058,-255.1825 1105.5,-249.7468 1095.001,-248.3249 1096.4058,-255.1825"/>
</g>
<!-- 6 -->
<g id="node7" class="node">
<title>6</title>
<path fill="none" stroke="#56b1d8" stroke-width="2" d="M180,-180C180,-180 117,-180 117,-180 111,-180 105,-174 105,-168 105,-168 105,-156 105,-156 105,-150 111,-144 117,-144 117,-144 180,-144 180,-144 186,-144 192,-150 192,-156 192,-156 192,-168 192,-168 192,-174 186,-180 180,-180"/>
<text text-anchor="middle" x="148.5" y="-159" font-family="sans" font-size="10.00" fill="#000000">samtools_sort</text>
</g>
<!-- 6&#45;&gt;1 -->
<g id="edge15" class="edge">
<title>6&#45;&gt;1</title>
<path fill="none" stroke="#c0c0c0" stroke-width="2" d="M192.2768,-146.0888C195.0416,-145.3198 197.7984,-144.6139 200.5,-144 349.7393,-110.0848 530.5506,-96.9804 619.1814,-92.3252"/>
<polygon fill="#c0c0c0" stroke="#c0c0c0" stroke-width="2" points="619.459,-95.8156 629.2679,-91.8112 619.1027,-88.8247 619.459,-95.8156"/>
</g>
<!-- 7&#45;&gt;6 -->
<g id="edge29" class="edge">
<title>7&#45;&gt;6</title>
<path fill="none" stroke="#c0c0c0" stroke-width="2" d="M175.4157,-215.8314C171.4385,-207.8771 166.6845,-198.369 162.2861,-189.5723"/>
<polygon fill="#c0c0c0" stroke="#c0c0c0" stroke-width="2" points="165.3093,-187.7923 157.7066,-180.4133 159.0483,-190.9228 165.3093,-187.7923"/>
</g>
<!-- 8 -->
<g id="node9" class="node">
<title>8</title>
<path fill="none" stroke="#d88556" stroke-width="2" d="M641.5,-324C641.5,-324 539.5,-324 539.5,-324 533.5,-324 527.5,-318 527.5,-312 527.5,-312 527.5,-300 527.5,-300 527.5,-294 533.5,-288 539.5,-288 539.5,-288 641.5,-288 641.5,-288 647.5,-288 653.5,-294 653.5,-300 653.5,-300 653.5,-312 653.5,-312 653.5,-318 647.5,-324 641.5,-324"/>
<text text-anchor="middle" x="590.5" y="-309" font-family="sans" font-size="10.00" fill="#000000">fastp</text>
<text text-anchor="middle" x="590.5" y="-297" font-family="sans" font-size="10.00" fill="#000000">sample: SRR3707575</text>
</g>
<!-- 8&#45;&gt;7 -->
<g id="edge30" class="edge">
<title>8&#45;&gt;7</title>
<path fill="none" stroke="#c0c0c0" stroke-width="2" d="M527.378,-289.7652C524.3835,-289.1381 521.4129,-288.5454 518.5,-288 395.7716,-265.0203 358.7519,-281.7998 233.5268,-251.9271"/>
<polygon fill="#c0c0c0" stroke="#c0c0c0" stroke-width="2" points="234.1015,-248.4648 223.557,-249.4959 232.443,-255.2655 234.1015,-248.4648"/>
</g>
<!-- 43 -->
<g id="node44" class="node">
<title>43</title>
<path fill="none" stroke="#56d89a" stroke-width="2" d="M1383.5,-252C1383.5,-252 1319.5,-252 1319.5,-252 1313.5,-252 1307.5,-246 1307.5,-240 1307.5,-240 1307.5,-228 1307.5,-228 1307.5,-222 1313.5,-216 1319.5,-216 1319.5,-216 1383.5,-216 1383.5,-216 1389.5,-216 1395.5,-222 1395.5,-228 1395.5,-228 1395.5,-240 1395.5,-240 1395.5,-246 1389.5,-252 1383.5,-252"/>
<text text-anchor="middle" x="1351.5" y="-231" font-family="sans" font-size="10.00" fill="#000000">salmon_quant</text>
</g>
<!-- 8&#45;&gt;43 -->
<g id="edge66" class="edge">
<title>8&#45;&gt;43</title>
<path fill="none" stroke="#c0c0c0" stroke-width="2" d="M653.5797,-289.5159C656.5855,-288.9555 659.5701,-288.4451 662.5,-288 939.1276,-245.9765 1018.7219,-304.6129 1297.4947,-251.8639"/>
<polygon fill="#c0c0c0" stroke="#c0c0c0" stroke-width="2" points="1298.3373,-255.2661 1307.4962,-249.9401 1297.0151,-248.3921 1298.3373,-255.2661"/>
</g>
<!-- 9 -->
<g id="node10" class="node">
<title>9</title>
<path fill="none" stroke="#56b1d8" stroke-width="2" d="M285,-180C285,-180 222,-180 222,-180 216,-180 210,-174 210,-168 210,-168 210,-156 210,-156 210,-150 216,-144 222,-144 222,-144 285,-144 285,-144 291,-144 297,-150 297,-156 297,-156 297,-168 297,-168 297,-174 291,-180 285,-180"/>
<text text-anchor="middle" x="253.5" y="-159" font-family="sans" font-size="10.00" fill="#000000">samtools_sort</text>
</g>
<!-- 9&#45;&gt;1 -->
<g id="edge16" class="edge">
<title>9&#45;&gt;1</title>
<path fill="none" stroke="#c0c0c0" stroke-width="2" d="M297.0153,-146.273C299.87,-145.4474 302.7158,-144.6798 305.5,-144 415.2144,-117.2125 546.7827,-101.8223 619.1338,-94.7595"/>
<polygon fill="#c0c0c0" stroke="#c0c0c0" stroke-width="2" points="619.7492,-98.2167 629.3692,-93.7775 619.0806,-91.2486 619.7492,-98.2167"/>
</g>
<!-- 10&#45;&gt;9 -->
<g id="edge32" class="edge">
<title>10&#45;&gt;9</title>
<path fill="none" stroke="#c0c0c0" stroke-width="2" d="M273.6868,-215.8314C270.7356,-207.9617 267.2142,-198.5712 263.945,-189.8533"/>
<polygon fill="#c0c0c0" stroke="#c0c0c0" stroke-width="2" points="267.1934,-188.5476 260.405,-180.4133 260.6391,-191.0055 267.1934,-188.5476"/>
</g>
<!-- 11 -->
<g id="node12" class="node">
<title>11</title>
<path fill="none" stroke="#d88556" stroke-width="2" d="M785.5,-324C785.5,-324 683.5,-324 683.5,-324 677.5,-324 671.5,-318 671.5,-312 671.5,-312 671.5,-300 671.5,-300 671.5,-294 677.5,-288 683.5,-288 683.5,-288 785.5,-288 785.5,-288 791.5,-288 797.5,-294 797.5,-300 797.5,-300 797.5,-312 797.5,-312 797.5,-318 791.5,-324 785.5,-324"/>
<text text-anchor="middle" x="734.5" y="-309" font-family="sans" font-size="10.00" fill="#000000">fastp</text>
<text text-anchor="middle" x="734.5" y="-297" font-family="sans" font-size="10.00" fill="#000000">sample: SRR3707576</text>
</g>
<!-- 11&#45;&gt;10 -->
<g id="edge33" class="edge">
<title>11&#45;&gt;10</title>
<path fill="none" stroke="#c0c0c0" stroke-width="2" d="M671.3898,-289.7005C668.3921,-289.0908 665.4176,-288.5194 662.5,-288 518.6648,-262.3945 475.6094,-285.4484 329.3293,-251.8511"/>
<polygon fill="#c0c0c0" stroke="#c0c0c0" stroke-width="2" points="330.0778,-248.4317 319.5427,-249.5551 328.4789,-255.2467 330.0778,-248.4317"/>
</g>
<!-- 44 -->
<g id="node45" class="node">
<title>44</title>
<path fill="none" stroke="#56d89a" stroke-width="2" d="M1489.5,-252C1489.5,-252 1425.5,-252 1425.5,-252 1419.5,-252 1413.5,-246 1413.5,-240 1413.5,-240 1413.5,-228 1413.5,-228 1413.5,-222 1419.5,-216 1425.5,-216 1425.5,-216 1489.5,-216 1489.5,-216 1495.5,-216 1501.5,-222 1501.5,-228 1501.5,-228 1501.5,-240 1501.5,-240 1501.5,-246 1495.5,-252 1489.5,-252"/>
<text text-anchor="middle" x="1457.5" y="-231" font-family="sans" font-size="10.00" fill="#000000">salmon_quant</text>
</g>
<!-- 11&#45;&gt;44 -->
<g id="edge68" class="edge">
<title>11&#45;&gt;44</title>
<path fill="none" stroke="#c0c0c0" stroke-width="2" d="M797.5817,-289.5289C800.587,-288.965 803.5709,-288.4503 806.5,-288 1066.3257,-248.0523 1141.3255,-301.8697 1403.2946,-251.9071"/>
<polygon fill="#c0c0c0" stroke="#c0c0c0" stroke-width="2" points="1404.3437,-255.2689 1413.4938,-249.9278 1403.0101,-248.3971 1404.3437,-255.2689"/>
</g>
<!-- 12 -->
<g id="node13" class="node">
<title>12</title>
<path fill="none" stroke="#56b1d8" stroke-width="2" d="M390,-180C390,-180 327,-180 327,-180 321,-180 315,-174 315,-168 315,-168 315,-156 315,-156 315,-150 321,-144 327,-144 327,-144 390,-144 390,-144 396,-144 402,-150 402,-156 402,-156 402,-168 402,-168 402,-174 396,-180 390,-180"/>
<text text-anchor="middle" x="358.5" y="-159" font-family="sans" font-size="10.00" fill="#000000">samtools_sort</text>
</g>
<!-- 12&#45;&gt;1 -->
<g id="edge17" class="edge">
<title>12&#45;&gt;1</title>
<path fill="none" stroke="#c0c0c0" stroke-width="2" d="M402.0631,-146.4573C404.9061,-145.5866 407.7362,-144.7586 410.5,-144 481.8657,-124.412 565.8693,-108.3504 619.3856,-98.9752"/>
<polygon fill="#c0c0c0" stroke="#c0c0c0" stroke-width="2" points="620.0875,-102.4058 629.3413,-97.2467 618.89,-95.509 620.0875,-102.4058"/>
</g>
<!-- 13&#45;&gt;12 -->
<g id="edge35" class="edge">
<title>13&#45;&gt;12</title>
<path fill="none" stroke="#c0c0c0" stroke-width="2" d="M371.9578,-215.8314C370.0116,-208.0463 367.6932,-198.7729 365.5337,-190.1347"/>
<polygon fill="#c0c0c0" stroke="#c0c0c0" stroke-width="2" points="368.9242,-189.2658 363.1033,-180.4133 362.1332,-190.9636 368.9242,-189.2658"/>
</g>
<!-- 14 -->
<g id="node15" class="node">
<title>14</title>
<path fill="none" stroke="#d88556" stroke-width="2" d="M929.5,-324C929.5,-324 827.5,-324 827.5,-324 821.5,-324 815.5,-318 815.5,-312 815.5,-312 815.5,-300 815.5,-300 815.5,-294 821.5,-288 827.5,-288 827.5,-288 929.5,-288 929.5,-288 935.5,-288 941.5,-294 941.5,-300 941.5,-300 941.5,-312 941.5,-312 941.5,-318 935.5,-324 929.5,-324"/>
<text text-anchor="middle" x="878.5" y="-309" font-family="sans" font-size="10.00" fill="#000000">fastp</text>
<text text-anchor="middle" x="878.5" y="-297" font-family="sans" font-size="10.00" fill="#000000">sample: SRR3707577</text>
</g>
<!-- 14&#45;&gt;13 -->
<g id="edge36" class="edge">
<title>14&#45;&gt;13</title>
<path fill="none" stroke="#c0c0c0" stroke-width="2" d="M815.3983,-289.6519C812.3984,-289.0551 809.421,-288.4998 806.5,-288 641.6959,-259.8 592.59,-289.084 425.6508,-251.9018"/>
<polygon fill="#c0c0c0" stroke="#c0c0c0" stroke-width="2" points="426.0595,-248.4054 415.5322,-249.5996 424.5066,-255.231 426.0595,-248.4054"/>
</g>
<!-- 45 -->
<g id="node46" class="node">
<title>45</title>
<path fill="none" stroke="#56d89a" stroke-width="2" d="M1595.5,-252C1595.5,-252 1531.5,-252 1531.5,-252 1525.5,-252 1519.5,-246 1519.5,-240 1519.5,-240 1519.5,-228 1519.5,-228 1519.5,-222 1525.5,-216 1531.5,-216 1531.5,-216 1595.5,-216 1595.5,-216 1601.5,-216 1607.5,-222 1607.5,-228 1607.5,-228 1607.5,-240 1607.5,-240 1607.5,-246 1601.5,-252 1595.5,-252"/>
<text text-anchor="middle" x="1563.5" y="-231" font-family="sans" font-size="10.00" fill="#000000">salmon_quant</text>
</g>
<!-- 14&#45;&gt;45 -->
<g id="edge70" class="edge">
<title>14&#45;&gt;45</title>
<path fill="none" stroke="#c0c0c0" stroke-width="2" d="M941.584,-289.5437C944.5887,-288.9759 947.5719,-288.4563 950.5,-288 1193.6797,-250.105 1264.0143,-299.1942 1509.5553,-251.863"/>
<polygon fill="#c0c0c0" stroke="#c0c0c0" stroke-width="2" points="1510.3518,-255.2735 1519.491,-249.9139 1509.0043,-248.4044 1510.3518,-255.2735"/>
</g>
<!-- 15 -->
<g id="node16" class="node">
<title>15</title>
<path fill="none" stroke="#56b1d8" stroke-width="2" d="M495,-180C495,-180 432,-180 432,-180 426,-180 420,-174 420,-168 420,-168 420,-156 420,-156 420,-150 426,-144 432,-144 432,-144 495,-144 495,-144 501,-144 507,-150 507,-156 507,-156 507,-168 507,-168 507,-174 501,-180 495,-180"/>
<text text-anchor="middle" x="463.5" y="-159" font-family="sans" font-size="10.00" fill="#000000">samtools_sort</text>
</g>
<!-- 15&#45;&gt;1 -->
<g id="edge18" class="edge">
<title>15&#45;&gt;1</title>
<path fill="none" stroke="#c0c0c0" stroke-width="2" d="M507.1885,-146.8632C510.0008,-145.8931 512.7898,-144.9322 515.5,-144 550.1292,-132.0889 589.0564,-118.7837 619.6071,-108.3607"/>
<polygon fill="#c0c0c0" stroke="#c0c0c0" stroke-width="2" points="620.8811,-111.6243 629.2158,-105.0834 618.6213,-104.999 620.8811,-111.6243"/>
</g>
<!-- 16&#45;&gt;15 -->
<g id="edge38" class="edge">
<title>16&#45;&gt;15</title>
<path fill="none" stroke="#c0c0c0" stroke-width="2" d="M470.2289,-215.8314C469.2664,-208.131 468.1218,-198.9743 467.0521,-190.4166"/>
<polygon fill="#c0c0c0" stroke="#c0c0c0" stroke-width="2" points="470.5151,-189.9019 465.8017,-180.4133 463.5691,-190.7702 470.5151,-189.9019"/>
</g>
<!-- 17 -->
<g id="node18" class="node">
<title>17</title>
<path fill="none" stroke="#d88556" stroke-width="2" d="M1073.5,-324C1073.5,-324 971.5,-324 971.5,-324 965.5,-324 959.5,-318 959.5,-312 959.5,-312 959.5,-300 959.5,-300 959.5,-294 965.5,-288 971.5,-288 971.5,-288 1073.5,-288 1073.5,-288 1079.5,-288 1085.5,-294 1085.5,-300 1085.5,-300 1085.5,-312 1085.5,-312 1085.5,-318 1079.5,-324 1073.5,-324"/>
<text text-anchor="middle" x="1022.5" y="-309" font-family="sans" font-size="10.00" fill="#000000">fastp</text>
<text text-anchor="middle" x="1022.5" y="-297" font-family="sans" font-size="10.00" fill="#000000">sample: SRR3707578</text>
</g>
<!-- 17&#45;&gt;16 -->
<g id="edge39" class="edge">
<title>17&#45;&gt;16</title>
<path fill="none" stroke="#c0c0c0" stroke-width="2" d="M959.4047,-289.614C956.403,-289.0274 953.4236,-288.4846 950.5,-288 764.5349,-257.1771 709.4839,-292.8078 521.4541,-251.8414"/>
<polygon fill="#c0c0c0" stroke="#c0c0c0" stroke-width="2" points="522.0455,-248.3875 511.5243,-249.6344 520.5267,-255.2208 522.0455,-248.3875"/>
</g>
<!-- 46 -->
<g id="node47" class="node">
<title>46</title>
<path fill="none" stroke="#56d89a" stroke-width="2" d="M1701.5,-252C1701.5,-252 1637.5,-252 1637.5,-252 1631.5,-252 1625.5,-246 1625.5,-240 1625.5,-240 1625.5,-228 1625.5,-228 1625.5,-222 1631.5,-216 1637.5,-216 1637.5,-216 1701.5,-216 1701.5,-216 1707.5,-216 1713.5,-222 1713.5,-228 1713.5,-228 1713.5,-240 1713.5,-240 1713.5,-246 1707.5,-252 1701.5,-252"/>
<text text-anchor="middle" x="1669.5" y="-231" font-family="sans" font-size="10.00" fill="#000000">salmon_quant</text>
</g>
<!-- 17&#45;&gt;46 -->
<g id="edge72" class="edge">
<title>17&#45;&gt;46</title>
<path fill="none" stroke="#c0c0c0" stroke-width="2" d="M1085.5867,-289.5607C1088.5906,-288.9883 1091.5729,-288.4631 1094.5,-288 1320.9414,-252.1728 1386.6441,-296.4846 1615.5234,-251.8757"/>
<polygon fill="#c0c0c0" stroke="#c0c0c0" stroke-width="2" points="1616.3606,-255.2779 1625.4879,-249.898 1614.9978,-248.4118 1616.3606,-255.2779"/>
</g>
<!-- 18 -->
<g id="node19" class="node">
<title>18</title>
<path fill="none" stroke="#56b1d8" stroke-width="2" d="M600,-180C600,-180 537,-180 537,-180 531,-180 525,-174 525,-168 525,-168 525,-156 525,-156 525,-150 531,-144 537,-144 537,-144 600,-144 600,-144 606,-144 612,-150 612,-156 612,-156 612,-168 612,-168 612,-174 606,-180 600,-180"/>
<text text-anchor="middle" x="568.5" y="-159" font-family="sans" font-size="10.00" fill="#000000">samtools_sort</text>
</g>
<!-- 18&#45;&gt;1 -->
<g id="edge19" class="edge">
<title>18&#45;&gt;1</title>
<path fill="none" stroke="#c0c0c0" stroke-width="2" d="M594.9959,-143.8314C608.1774,-134.7927 624.2847,-123.7476 638.4711,-114.0198"/>
<polygon fill="#c0c0c0" stroke="#c0c0c0" stroke-width="2" points="640.7446,-116.7047 647.0125,-108.1628 636.7859,-110.9316 640.7446,-116.7047"/>
</g>
<!-- 19&#45;&gt;18 -->
<g id="edge41" class="edge">
<title>19&#45;&gt;18</title>
<path fill="none" stroke="#c0c0c0" stroke-width="2" d="M568.5,-215.8314C568.5,-208.131 568.5,-198.9743 568.5,-190.4166"/>
<polygon fill="#c0c0c0" stroke="#c0c0c0" stroke-width="2" points="572.0001,-190.4132 568.5,-180.4133 565.0001,-190.4133 572.0001,-190.4132"/>
</g>
<!-- 20 -->
<g id="node21" class="node">
<title>20</title>
<path fill="none" stroke="#d88556" stroke-width="2" d="M1217.5,-324C1217.5,-324 1115.5,-324 1115.5,-324 1109.5,-324 1103.5,-318 1103.5,-312 1103.5,-312 1103.5,-300 1103.5,-300 1103.5,-294 1109.5,-288 1115.5,-288 1115.5,-288 1217.5,-288 1217.5,-288 1223.5,-288 1229.5,-294 1229.5,-300 1229.5,-300 1229.5,-312 1229.5,-312 1229.5,-318 1223.5,-324 1217.5,-324"/>
<text text-anchor="middle" x="1166.5" y="-309" font-family="sans" font-size="10.00" fill="#000000">fastp</text>
<text text-anchor="middle" x="1166.5" y="-297" font-family="sans" font-size="10.00" fill="#000000">sample: SRR3707579</text>
</g>
<!-- 20&#45;&gt;19 -->
<g id="edge42" class="edge">
<title>20&#45;&gt;19</title>
<path fill="none" stroke="#c0c0c0" stroke-width="2" d="M1103.4097,-289.5837C1100.4067,-289.0051 1097.4256,-288.4724 1094.5,-288 887.4639,-254.5726 826.4511,-296.5126 617.5774,-251.8549"/>
<polygon fill="#c0c0c0" stroke="#c0c0c0" stroke-width="2" points="618.0341,-248.3723 607.5181,-249.6622 616.5433,-255.2117 618.0341,-248.3723"/>
</g>
<!-- 47 -->
<g id="node48" class="node">
<title>47</title>
<path fill="none" stroke="#56d89a" stroke-width="2" d="M1807.5,-252C1807.5,-252 1743.5,-252 1743.5,-252 1737.5,-252 1731.5,-246 1731.5,-240 1731.5,-240 1731.5,-228 1731.5,-228 1731.5,-222 1737.5,-216 1743.5,-216 1743.5,-216 1807.5,-216 1807.5,-216 1813.5,-216 1819.5,-222 1819.5,-228 1819.5,-228 1819.5,-240 1819.5,-240 1819.5,-246 1813.5,-252 1807.5,-252"/>
<text text-anchor="middle" x="1775.5" y="-231" font-family="sans" font-size="10.00" fill="#000000">salmon_quant</text>
</g>
<!-- 20&#45;&gt;47 -->
<g id="edge74" class="edge">
<title>20&#45;&gt;47</title>
<path fill="none" stroke="#c0c0c0" stroke-width="2" d="M1229.5898,-289.5803C1232.5929,-289.0027 1235.5742,-288.471 1238.5,-288 1448.24,-254.236 1509.2883,-293.7945 1721.5872,-251.8708"/>
<polygon fill="#c0c0c0" stroke="#c0c0c0" stroke-width="2" points="1722.371,-255.2834 1731.4841,-249.8795 1720.9902,-248.4209 1722.371,-255.2834"/>
</g>
<!-- 21 -->
<g id="node22" class="node">
<title>21</title>
<path fill="none" stroke="#56b1d8" stroke-width="2" d="M705,-180C705,-180 642,-180 642,-180 636,-180 630,-174 630,-168 630,-168 630,-156 630,-156 630,-150 636,-144 642,-144 642,-144 705,-144 705,-144 711,-144 717,-150 717,-156 717,-156 717,-168 717,-168 717,-174 711,-180 705,-180"/>
<text text-anchor="middle" x="673.5" y="-159" font-family="sans" font-size="10.00" fill="#000000">samtools_sort</text>
</g>
<!-- 21&#45;&gt;1 -->
<g id="edge20" class="edge">
<title>21&#45;&gt;1</title>
<path fill="none" stroke="#c0c0c0" stroke-width="2" d="M673.5,-143.8314C673.5,-136.131 673.5,-126.9743 673.5,-118.4166"/>
<polygon fill="#c0c0c0" stroke="#c0c0c0" stroke-width="2" points="677.0001,-118.4132 673.5,-108.4133 670.0001,-118.4133 677.0001,-118.4132"/>
</g>
<!-- 22&#45;&gt;21 -->
<g id="edge44" class="edge">
<title>22&#45;&gt;21</title>
<path fill="none" stroke="#c0c0c0" stroke-width="2" d="M666.7711,-215.8314C667.7336,-208.131 668.8782,-198.9743 669.9479,-190.4166"/>
<polygon fill="#c0c0c0" stroke="#c0c0c0" stroke-width="2" points="673.4309,-190.7702 671.1983,-180.4133 666.4849,-189.9019 673.4309,-190.7702"/>
</g>
<!-- 23 -->
<g id="node24" class="node">
<title>23</title>
<path fill="none" stroke="#d88556" stroke-width="2" d="M1361.5,-324C1361.5,-324 1259.5,-324 1259.5,-324 1253.5,-324 1247.5,-318 1247.5,-312 1247.5,-312 1247.5,-300 1247.5,-300 1247.5,-294 1253.5,-288 1259.5,-288 1259.5,-288 1361.5,-288 1361.5,-288 1367.5,-288 1373.5,-294 1373.5,-300 1373.5,-300 1373.5,-312 1373.5,-312 1373.5,-318 1367.5,-324 1361.5,-324"/>
<text text-anchor="middle" x="1310.5" y="-309" font-family="sans" font-size="10.00" fill="#000000">fastp</text>
<text text-anchor="middle" x="1310.5" y="-297" font-family="sans" font-size="10.00" fill="#000000">sample: SRR3707580</text>
</g>
<!-- 23&#45;&gt;22 -->
<g id="edge45" class="edge">
<title>23&#45;&gt;22</title>
<path fill="none" stroke="#c0c0c0" stroke-width="2" d="M1247.4136,-289.5588C1244.4096,-288.9869 1241.4272,-288.4624 1238.5,-288 1010.3222,-251.9591 943.3913,-300.2563 713.5202,-251.832"/>
<polygon fill="#c0c0c0" stroke="#c0c0c0" stroke-width="2" points="714.0249,-248.3607 703.5131,-249.685 712.5564,-255.205 714.0249,-248.3607"/>
</g>
<!-- 48 -->
<g id="node49" class="node">
<title>48</title>
<path fill="none" stroke="#56d89a" stroke-width="2" d="M1913.5,-252C1913.5,-252 1849.5,-252 1849.5,-252 1843.5,-252 1837.5,-246 1837.5,-240 1837.5,-240 1837.5,-228 1837.5,-228 1837.5,-222 1843.5,-216 1849.5,-216 1849.5,-216 1913.5,-216 1913.5,-216 1919.5,-216 1925.5,-222 1925.5,-228 1925.5,-228 1925.5,-240 1925.5,-240 1925.5,-246 1919.5,-252 1913.5,-252"/>
<text text-anchor="middle" x="1881.5" y="-231" font-family="sans" font-size="10.00" fill="#000000">salmon_quant</text>
</g>
<!-- 23&#45;&gt;48 -->
<g id="edge76" class="edge">
<title>23&#45;&gt;48</title>
<path fill="none" stroke="#c0c0c0" stroke-width="2" d="M1373.5935,-289.6032C1376.5957,-289.0194 1379.5757,-288.4802 1382.5,-288 1575.4808,-256.31 1631.89,-291.0893 1827.4549,-251.9063"/>
<polygon fill="#c0c0c0" stroke="#c0c0c0" stroke-width="2" points="1828.3828,-255.2891 1837.4797,-249.858 1826.9814,-248.4308 1828.3828,-255.2891"/>
</g>
<!-- 24 -->
<g id="node25" class="node">
<title>24</title>
<path fill="none" stroke="#56b1d8" stroke-width="2" d="M810,-180C810,-180 747,-180 747,-180 741,-180 735,-174 735,-168 735,-168 735,-156 735,-156 735,-150 741,-144 747,-144 747,-144 810,-144 810,-144 816,-144 822,-150 822,-156 822,-156 822,-168 822,-168 822,-174 816,-180 810,-180"/>
<text text-anchor="middle" x="778.5" y="-159" font-family="sans" font-size="10.00" fill="#000000">samtools_sort</text>
</g>
<!-- 24&#45;&gt;1 -->
<g id="edge21" class="edge">
<title>24&#45;&gt;1</title>
<path fill="none" stroke="#c0c0c0" stroke-width="2" d="M752.0041,-143.8314C738.8226,-134.7927 722.7153,-123.7476 708.5289,-114.0198"/>
<polygon fill="#c0c0c0" stroke="#c0c0c0" stroke-width="2" points="710.2141,-110.9316 699.9875,-108.1628 706.2554,-116.7047 710.2141,-110.9316"/>
</g>
<!-- 25&#45;&gt;24 -->
<g id="edge47" class="edge">
<title>25&#45;&gt;24</title>
<path fill="none" stroke="#c0c0c0" stroke-width="2" d="M765.0422,-215.8314C766.9884,-208.0463 769.3068,-198.7729 771.4663,-190.1347"/>
<polygon fill="#c0c0c0" stroke="#c0c0c0" stroke-width="2" points="774.8668,-190.9636 773.8967,-180.4133 768.0758,-189.2658 774.8668,-190.9636"/>
</g>
<!-- 26 -->
<g id="node27" class="node">
<title>26</title>
<path fill="none" stroke="#d88556" stroke-width="2" d="M1505.5,-324C1505.5,-324 1403.5,-324 1403.5,-324 1397.5,-324 1391.5,-318 1391.5,-312 1391.5,-312 1391.5,-300 1391.5,-300 1391.5,-294 1397.5,-288 1403.5,-288 1403.5,-288 1505.5,-288 1505.5,-288 1511.5,-288 1517.5,-294 1517.5,-300 1517.5,-300 1517.5,-312 1517.5,-312 1517.5,-318 1511.5,-324 1505.5,-324"/>
<text text-anchor="middle" x="1454.5" y="-309" font-family="sans" font-size="10.00" fill="#000000">fastp</text>
<text text-anchor="middle" x="1454.5" y="-297" font-family="sans" font-size="10.00" fill="#000000">sample: SRR3707581</text>
</g>
<!-- 26&#45;&gt;25 -->
<g id="edge48" class="edge">
<title>26&#45;&gt;25</title>
<path fill="none" stroke="#c0c0c0" stroke-width="2" d="M1391.4169,-289.5381C1388.412,-288.9717 1385.4285,-288.454 1382.5,-288 1133.2353,-249.3561 1060.3746,-303.9844 809.6538,-251.8511"/>
<polygon fill="#c0c0c0" stroke="#c0c0c0" stroke-width="2" points="810.0171,-248.3505 799.5091,-249.704 808.5676,-255.1988 810.0171,-248.3505"/>
</g>
<!-- 49 -->
<g id="node50" class="node">
<title>49</title>
<path fill="none" stroke="#56d89a" stroke-width="2" d="M2019.5,-252C2019.5,-252 1955.5,-252 1955.5,-252 1949.5,-252 1943.5,-246 1943.5,-240 1943.5,-240 1943.5,-228 1943.5,-228 1943.5,-222 1949.5,-216 1955.5,-216 1955.5,-216 2019.5,-216 2019.5,-216 2025.5,-216 2031.5,-222 2031.5,-228 2031.5,-228 2031.5,-240 2031.5,-240 2031.5,-246 2025.5,-252 2019.5,-252"/>
<text text-anchor="middle" x="1987.5" y="-231" font-family="sans" font-size="10.00" fill="#000000">salmon_quant</text>
</g>
<!-- 26&#45;&gt;49 -->
<g id="edge78" class="edge">
<title>26&#45;&gt;49</title>
<path fill="none" stroke="#c0c0c0" stroke-width="2" d="M1517.598,-289.6303C1520.599,-289.0393 1523.5775,-288.4911 1526.5,-288 1702.7773,-258.3768 1754.5131,-288.4132 1933.4661,-251.9154"/>
<polygon fill="#c0c0c0" stroke="#c0c0c0" stroke-width="2" points="1934.3973,-255.2967 1943.4744,-249.8325 1932.971,-248.4435 1934.3973,-255.2967"/>
</g>
<!-- 27 -->
<g id="node28" class="node">
<title>27</title>
<path fill="none" stroke="#56b1d8" stroke-width="2" d="M915,-180C915,-180 852,-180 852,-180 846,-180 840,-174 840,-168 840,-168 840,-156 840,-156 840,-150 846,-144 852,-144 852,-144 915,-144 915,-144 921,-144 927,-150 927,-156 927,-156 927,-168 927,-168 927,-174 921,-180 915,-180"/>
<text text-anchor="middle" x="883.5" y="-159" font-family="sans" font-size="10.00" fill="#000000">samtools_sort</text>
</g>
<!-- 27&#45;&gt;1 -->
<g id="edge22" class="edge">
<title>27&#45;&gt;1</title>
<path fill="none" stroke="#c0c0c0" stroke-width="2" d="M839.9879,-147.0816C807.2636,-135.8618 762.2364,-120.4239 727.2592,-108.4317"/>
<polygon fill="#c0c0c0" stroke="#c0c0c0" stroke-width="2" points="728.2735,-105.0795 717.6789,-105.147 726.0032,-111.7012 728.2735,-105.0795"/>
</g>
<!-- 28&#45;&gt;27 -->
<g id="edge50" class="edge">
<title>28&#45;&gt;27</title>
<path fill="none" stroke="#c0c0c0" stroke-width="2" d="M863.3132,-215.8314C866.2644,-207.9617 869.7858,-198.5712 873.055,-189.8533"/>
<polygon fill="#c0c0c0" stroke="#c0c0c0" stroke-width="2" points="876.3609,-191.0055 876.595,-180.4133 869.8066,-188.5476 876.3609,-191.0055"/>
</g>
<!-- 29 -->
<g id="node30" class="node">
<title>29</title>
<path fill="none" stroke="#d88556" stroke-width="2" d="M1649.5,-324C1649.5,-324 1547.5,-324 1547.5,-324 1541.5,-324 1535.5,-318 1535.5,-312 1535.5,-312 1535.5,-300 1535.5,-300 1535.5,-294 1541.5,-288 1547.5,-288 1547.5,-288 1649.5,-288 1649.5,-288 1655.5,-288 1661.5,-294 1661.5,-300 1661.5,-300 1661.5,-312 1661.5,-312 1661.5,-318 1655.5,-324 1649.5,-324"/>
<text text-anchor="middle" x="1598.5" y="-309" font-family="sans" font-size="10.00" fill="#000000">fastp</text>
<text text-anchor="middle" x="1598.5" y="-297" font-family="sans" font-size="10.00" fill="#000000">sample: SRR3707582</text>
</g>
<!-- 29&#45;&gt;28 -->
<g id="edge51" class="edge">
<title>29&#45;&gt;28</title>
<path fill="none" stroke="#c0c0c0" stroke-width="2" d="M1535.4196,-289.5205C1532.4139,-288.9589 1529.4296,-288.4469 1526.5,-288 1256.1019,-246.7471 1177.3393,-307.7383 905.6666,-251.8462"/>
<polygon fill="#c0c0c0" stroke="#c0c0c0" stroke-width="2" points="906.0105,-248.3424 895.5056,-249.7201 904.5768,-255.1941 906.0105,-248.3424"/>
</g>
<!-- 50 -->
<g id="node51" class="node">
<title>50</title>
<path fill="none" stroke="#56d89a" stroke-width="2" d="M2125.5,-252C2125.5,-252 2061.5,-252 2061.5,-252 2055.5,-252 2049.5,-246 2049.5,-240 2049.5,-240 2049.5,-228 2049.5,-228 2049.5,-222 2055.5,-216 2061.5,-216 2061.5,-216 2125.5,-216 2125.5,-216 2131.5,-216 2137.5,-222 2137.5,-228 2137.5,-228 2137.5,-240 2137.5,-240 2137.5,-246 2131.5,-252 2125.5,-252"/>
<text text-anchor="middle" x="2093.5" y="-231" font-family="sans" font-size="10.00" fill="#000000">salmon_quant</text>
</g>
<!-- 29&#45;&gt;50 -->
<g id="edge80" class="edge">
<title>29&#45;&gt;50</title>
<path fill="none" stroke="#c0c0c0" stroke-width="2" d="M1661.6036,-289.6629C1664.603,-289.0632 1667.5797,-288.5042 1670.5,-288 1830.1318,-260.4362 1877.156,-285.7666 2039.6196,-251.8972"/>
<polygon fill="#c0c0c0" stroke="#c0c0c0" stroke-width="2" points="2040.4152,-255.3064 2049.4679,-249.8018 2038.9584,-248.4597 2040.4152,-255.3064"/>
</g>
<!-- 30 -->
<g id="node31" class="node">
<title>30</title>
<path fill="none" stroke="#56b1d8" stroke-width="2" d="M1020,-180C1020,-180 957,-180 957,-180 951,-180 945,-174 945,-168 945,-168 945,-156 945,-156 945,-150 951,-144 957,-144 957,-144 1020,-144 1020,-144 1026,-144 1032,-150 1032,-156 1032,-156 1032,-168 1032,-168 1032,-174 1026,-180 1020,-180"/>
<text text-anchor="middle" x="988.5" y="-159" font-family="sans" font-size="10.00" fill="#000000">samtools_sort</text>
</g>
<!-- 30&#45;&gt;1 -->
<g id="edge23" class="edge">
<title>30&#45;&gt;1</title>
<path fill="none" stroke="#c0c0c0" stroke-width="2" d="M944.9596,-146.7345C941.772,-145.7641 938.5946,-144.8409 935.5,-144 864.5557,-124.7218 781.1706,-108.6376 727.8563,-99.1686"/>
<polygon fill="#c0c0c0" stroke="#c0c0c0" stroke-width="2" points="728.3898,-95.7088 717.9343,-97.4212 727.1756,-102.6027 728.3898,-95.7088"/>
</g>
<!-- 31&#45;&gt;30 -->
<g id="edge53" class="edge">
<title>31&#45;&gt;30</title>
<path fill="none" stroke="#c0c0c0" stroke-width="2" d="M961.5843,-215.8314C965.5615,-207.8771 970.3155,-198.369 974.7139,-189.5723"/>
<polygon fill="#c0c0c0" stroke="#c0c0c0" stroke-width="2" points="977.9517,-190.9228 979.2934,-180.4133 971.6907,-187.7923 977.9517,-190.9228"/>
</g>
<!-- 32 -->
<g id="node33" class="node">
<title>32</title>
<path fill="none" stroke="#d88556" stroke-width="2" d="M1793.5,-324C1793.5,-324 1691.5,-324 1691.5,-324 1685.5,-324 1679.5,-318 1679.5,-312 1679.5,-312 1679.5,-300 1679.5,-300 1679.5,-294 1685.5,-288 1691.5,-288 1691.5,-288 1793.5,-288 1793.5,-288 1799.5,-288 1805.5,-294 1805.5,-300 1805.5,-300 1805.5,-312 1805.5,-312 1805.5,-318 1799.5,-324 1793.5,-324"/>
<text text-anchor="middle" x="1742.5" y="-309" font-family="sans" font-size="10.00" fill="#000000">fastp</text>
<text text-anchor="middle" x="1742.5" y="-297" font-family="sans" font-size="10.00" fill="#000000">sample: SRR3707583</text>
</g>
<!-- 32&#45;&gt;31 -->
<g id="edge54" class="edge">
<title>32&#45;&gt;31</title>
<path fill="none" stroke="#c0c0c0" stroke-width="2" d="M1679.4218,-289.5055C1676.4156,-288.9479 1673.4305,-288.4409 1670.5,-288 1378.9231,-244.1325 1294.2845,-311.5178 1001.5582,-251.8177"/>
<polygon fill="#c0c0c0" stroke="#c0c0c0" stroke-width="2" points="1002.0049,-248.336 991.5027,-249.7339 1000.5845,-255.1903 1002.0049,-248.336"/>
</g>
<!-- 51 -->
<g id="node52" class="node">
<title>51</title>
<path fill="none" stroke="#56d89a" stroke-width="2" d="M2231.5,-252C2231.5,-252 2167.5,-252 2167.5,-252 2161.5,-252 2155.5,-246 2155.5,-240 2155.5,-240 2155.5,-228 2155.5,-228 2155.5,-222 2161.5,-216 2167.5,-216 2167.5,-216 2231.5,-216 2231.5,-216 2237.5,-216 2243.5,-222 2243.5,-228 2243.5,-228 2243.5,-240 2243.5,-240 2243.5,-246 2237.5,-252 2231.5,-252"/>
<text text-anchor="middle" x="2199.5" y="-231" font-family="sans" font-size="10.00" fill="#000000">salmon_quant</text>
</g>
<!-- 32&#45;&gt;51 -->
<g id="edge82" class="edge">
<title>32&#45;&gt;51</title>
<path fill="none" stroke="#c0c0c0" stroke-width="2" d="M1805.6106,-289.7029C1808.6082,-289.0925 1811.5826,-288.5203 1814.5,-288 1957.3329,-262.5256 1999.6895,-283.0882 2145.2594,-251.9908"/>
<polygon fill="#c0c0c0" stroke="#c0c0c0" stroke-width="2" points="2146.4362,-255.3164 2155.4597,-249.7642 2144.9432,-248.4775 2146.4362,-255.3164"/>
</g>
<!-- 33 -->
<g id="node34" class="node">
<title>33</title>
<path fill="none" stroke="#56b1d8" stroke-width="2" d="M1125,-180C1125,-180 1062,-180 1062,-180 1056,-180 1050,-174 1050,-168 1050,-168 1050,-156 1050,-156 1050,-150 1056,-144 1062,-144 1062,-144 1125,-144 1125,-144 1131,-144 1137,-150 1137,-156 1137,-156 1137,-168 1137,-168 1137,-174 1131,-180 1125,-180"/>
<text text-anchor="middle" x="1093.5" y="-159" font-family="sans" font-size="10.00" fill="#000000">samtools_sort</text>
</g>
<!-- 33&#45;&gt;1 -->
<g id="edge24" class="edge">
<title>33&#45;&gt;1</title>
<path fill="none" stroke="#c0c0c0" stroke-width="2" d="M1049.7205,-146.4486C1046.6182,-145.5576 1043.5229,-144.7293 1040.5,-144 931.1542,-117.6181 800.1805,-102.0989 727.9899,-94.9003"/>
<polygon fill="#c0c0c0" stroke="#c0c0c0" stroke-width="2" points="728.0689,-91.3913 717.7749,-93.8982 727.3855,-98.3579 728.0689,-91.3913"/>
</g>
<!-- 34&#45;&gt;33 -->
<g id="edge56" class="edge">
<title>34&#45;&gt;33</title>
<path fill="none" stroke="#c0c0c0" stroke-width="2" d="M1059.8554,-215.8314C1064.9326,-207.7079 1071.0227,-197.9637 1076.6176,-189.0118"/>
<polygon fill="#c0c0c0" stroke="#c0c0c0" stroke-width="2" points="1079.6597,-190.7483 1081.9917,-180.4133 1073.7237,-187.0383 1079.6597,-190.7483"/>
</g>
<!-- 35 -->
<g id="node36" class="node">
<title>35</title>
<path fill="none" stroke="#d88556" stroke-width="2" d="M1937.5,-324C1937.5,-324 1835.5,-324 1835.5,-324 1829.5,-324 1823.5,-318 1823.5,-312 1823.5,-312 1823.5,-300 1823.5,-300 1823.5,-294 1829.5,-288 1835.5,-288 1835.5,-288 1937.5,-288 1937.5,-288 1943.5,-288 1949.5,-294 1949.5,-300 1949.5,-300 1949.5,-312 1949.5,-312 1949.5,-318 1943.5,-324 1937.5,-324"/>
<text text-anchor="middle" x="1886.5" y="-309" font-family="sans" font-size="10.00" fill="#000000">fastp</text>
<text text-anchor="middle" x="1886.5" y="-297" font-family="sans" font-size="10.00" fill="#000000">sample: SRR3707584</text>
</g>
<!-- 35&#45;&gt;34 -->
<g id="edge57" class="edge">
<title>35&#45;&gt;34</title>
<path fill="none" stroke="#c0c0c0" stroke-width="2" d="M1823.4238,-289.4924C1820.417,-288.9383 1817.4313,-288.4356 1814.5,-288 1501.6999,-241.5123 1411.2096,-315.3228 1097.3282,-251.7658"/>
<polygon fill="#c0c0c0" stroke="#c0c0c0" stroke-width="2" points="1098.0001,-248.3308 1087.5002,-249.7459 1096.5909,-255.1875 1098.0001,-248.3308"/>
</g>
<!-- 52 -->
<g id="node53" class="node">
<title>52</title>
<path fill="none" stroke="#56d89a" stroke-width="2" d="M2337.5,-252C2337.5,-252 2273.5,-252 2273.5,-252 2267.5,-252 2261.5,-246 2261.5,-240 2261.5,-240 2261.5,-228 2261.5,-228 2261.5,-222 2267.5,-216 2273.5,-216 2273.5,-216 2337.5,-216 2337.5,-216 2343.5,-216 2349.5,-222 2349.5,-228 2349.5,-228 2349.5,-240 2349.5,-240 2349.5,-246 2343.5,-252 2337.5,-252"/>
<text text-anchor="middle" x="2305.5" y="-231" font-family="sans" font-size="10.00" fill="#000000">salmon_quant</text>
</g>
<!-- 35&#45;&gt;52 -->
<g id="edge84" class="edge">
<title>35&#45;&gt;52</title>
<path fill="none" stroke="#c0c0c0" stroke-width="2" d="M1949.6197,-289.753C1952.6148,-289.1292 1955.5862,-288.5405 1958.5,-288 2084.7746,-264.5767 2122.3399,-280.5001 2251.5719,-251.9457"/>
<polygon fill="#c0c0c0" stroke="#c0c0c0" stroke-width="2" points="2252.4647,-255.3324 2261.4491,-249.7171 2250.9239,-248.504 2252.4647,-255.3324"/>
</g>
<!-- 36 -->
<g id="node37" class="node">
<title>36</title>
<path fill="none" stroke="#56b1d8" stroke-width="2" d="M1230,-180C1230,-180 1167,-180 1167,-180 1161,-180 1155,-174 1155,-168 1155,-168 1155,-156 1155,-156 1155,-150 1161,-144 1167,-144 1167,-144 1230,-144 1230,-144 1236,-144 1242,-150 1242,-156 1242,-156 1242,-168 1242,-168 1242,-174 1236,-180 1230,-180"/>
<text text-anchor="middle" x="1198.5" y="-159" font-family="sans" font-size="10.00" fill="#000000">samtools_sort</text>
</g>
<!-- 36&#45;&gt;1 -->
<g id="edge25" class="edge">
<title>36&#45;&gt;1</title>
<path fill="none" stroke="#c0c0c0" stroke-width="2" d="M1154.7466,-146.3367C1151.638,-145.4723 1148.5342,-144.6806 1145.5,-144 996.4779,-110.5731 816.0928,-97.2506 727.6812,-92.4373"/>
<polygon fill="#c0c0c0" stroke="#c0c0c0" stroke-width="2" points="727.7908,-88.9383 717.6197,-91.9049 727.4208,-95.9285 727.7908,-88.9383"/>
</g>
<!-- 37&#45;&gt;36 -->
<g id="edge59" class="edge">
<title>37&#45;&gt;36</title>
<path fill="none" stroke="#c0c0c0" stroke-width="2" d="M1158.1265,-215.8314C1164.346,-207.5386 1171.8322,-197.557 1178.66,-188.4533"/>
<polygon fill="#c0c0c0" stroke="#c0c0c0" stroke-width="2" points="1181.49,-190.5133 1184.69,-180.4133 1175.89,-186.3133 1181.49,-190.5133"/>
</g>
<!-- 38 -->
<g id="node39" class="node">
<title>38</title>
<path fill="none" stroke="#d88556" stroke-width="2" d="M2081.5,-324C2081.5,-324 1979.5,-324 1979.5,-324 1973.5,-324 1967.5,-318 1967.5,-312 1967.5,-312 1967.5,-300 1967.5,-300 1967.5,-294 1973.5,-288 1979.5,-288 1979.5,-288 2081.5,-288 2081.5,-288 2087.5,-288 2093.5,-294 2093.5,-300 2093.5,-300 2093.5,-312 2093.5,-312 2093.5,-318 2087.5,-324 2081.5,-324"/>
<text text-anchor="middle" x="2030.5" y="-309" font-family="sans" font-size="10.00" fill="#000000">fastp</text>
<text text-anchor="middle" x="2030.5" y="-297" font-family="sans" font-size="10.00" fill="#000000">sample: SRR3707585</text>
</g>
<!-- 38&#45;&gt;37 -->
<g id="edge60" class="edge">
<title>38&#45;&gt;37</title>
<path fill="none" stroke="#c0c0c0" stroke-width="2" d="M1967.4255,-289.481C1964.4183,-288.9299 1961.432,-288.431 1958.5,-288 1624.5973,-238.9108 1528.2091,-319.0741 1193.7298,-251.8645"/>
<polygon fill="#c0c0c0" stroke="#c0c0c0" stroke-width="2" points="1194.2617,-248.401 1183.7641,-249.8328 1192.8633,-255.2599 1194.2617,-248.401"/>
</g>
<!-- 53 -->
<g id="node54" class="node">
<title>53</title>
<path fill="none" stroke="#56d89a" stroke-width="2" d="M2443.5,-252C2443.5,-252 2379.5,-252 2379.5,-252 2373.5,-252 2367.5,-246 2367.5,-240 2367.5,-240 2367.5,-228 2367.5,-228 2367.5,-222 2373.5,-216 2379.5,-216 2379.5,-216 2443.5,-216 2443.5,-216 2449.5,-216 2455.5,-222 2455.5,-228 2455.5,-228 2455.5,-240 2455.5,-240 2455.5,-246 2449.5,-252 2443.5,-252"/>
<text text-anchor="middle" x="2411.5" y="-231" font-family="sans" font-size="10.00" fill="#000000">salmon_quant</text>
</g>
<!-- 38&#45;&gt;53 -->
<g id="edge86" class="edge">
<title>38&#45;&gt;53</title>
<path fill="none" stroke="#c0c0c0" stroke-width="2" d="M2093.632,-289.8176C2096.6238,-289.1765 2099.5912,-288.5665 2102.5,-288 2212.0845,-266.6583 2244.876,-277.908 2357.39,-252.0166"/>
<polygon fill="#c0c0c0" stroke="#c0c0c0" stroke-width="2" points="2358.5006,-255.3511 2367.4349,-249.6564 2356.8994,-248.5367 2358.5006,-255.3511"/>
</g>
<!-- 39&#45;&gt;0 -->
<g id="edge2" class="edge">
<title>39&#45;&gt;0</title>
<path fill="none" stroke="#c0c0c0" stroke-width="2" d="M1274.854,-215.986C1329.3421,-183.2203 1450.5947,-113.4366 1560.5,-72 1621.1762,-49.1238 1695.1177,-32.9682 1738.5784,-24.5964"/>
<polygon fill="#c0c0c0" stroke="#c0c0c0" stroke-width="2" points="1739.246,-28.0323 1748.4207,-22.7336 1737.9442,-21.1544 1739.246,-28.0323"/>
</g>
<!-- 40 -->
<g id="node41" class="node">
<title>40</title>
<path fill="none" stroke="#ced856" stroke-width="2" d="M2185.5,-324C2185.5,-324 2123.5,-324 2123.5,-324 2117.5,-324 2111.5,-318 2111.5,-312 2111.5,-312 2111.5,-300 2111.5,-300 2111.5,-294 2117.5,-288 2123.5,-288 2123.5,-288 2185.5,-288 2185.5,-288 2191.5,-288 2197.5,-294 2197.5,-300 2197.5,-300 2197.5,-312 2197.5,-312 2197.5,-318 2191.5,-324 2185.5,-324"/>
<text text-anchor="middle" x="2154.5" y="-303" font-family="sans" font-size="10.00" fill="#000000">salmon_index</text>
</g>
<!-- 40&#45;&gt;39 -->
<g id="edge63" class="edge">
<title>40&#45;&gt;39</title>
<path fill="none" stroke="#c0c0c0" stroke-width="2" d="M2111.3438,-290.0173C2108.3756,-289.242 2105.4088,-288.5564 2102.5,-288 1754.4372,-221.4232 1651.9155,-316.3808 1299.748,-251.9088"/>
<polygon fill="#c0c0c0" stroke="#c0c0c0" stroke-width="2" points="1300.2602,-248.4441 1289.7886,-250.0554 1298.9794,-255.3259 1300.2602,-248.4441"/>
</g>
<!-- 40&#45;&gt;43 -->
<g id="edge67" class="edge">
<title>40&#45;&gt;43</title>
<path fill="none" stroke="#c0c0c0" stroke-width="2" d="M2111.3394,-290.0402C2108.3723,-289.2593 2105.4069,-288.5663 2102.5,-288 1800.8718,-229.2439 1711.4919,-308.7598 1405.5444,-251.8595"/>
<polygon fill="#c0c0c0" stroke="#c0c0c0" stroke-width="2" points="1405.9772,-248.3793 1395.5005,-249.9573 1404.6745,-255.2571 1405.9772,-248.3793"/>
</g>
<!-- 40&#45;&gt;44 -->
<g id="edge69" class="edge">
<title>40&#45;&gt;44</title>
<path fill="none" stroke="#c0c0c0" stroke-width="2" d="M2111.3333,-290.0712C2108.3677,-289.2828 2105.4043,-288.5796 2102.5,-288 1847.2825,-237.0641 1771.079,-301.1677 1511.6076,-251.8837"/>
<polygon fill="#c0c0c0" stroke="#c0c0c0" stroke-width="2" points="1511.9899,-248.3927 1501.5066,-249.9258 1510.6578,-255.2648 1511.9899,-248.3927"/>
</g>
<!-- 40&#45;&gt;45 -->
<g id="edge71" class="edge">
<title>40&#45;&gt;45</title>
<path fill="none" stroke="#c0c0c0" stroke-width="2" d="M2111.3243,-290.1156C2108.3608,-289.3165 2105.4004,-288.5988 2102.5,-288 1893.5923,-244.8706 1830.6459,-293.6511 1617.4531,-251.8718"/>
<polygon fill="#c0c0c0" stroke="#c0c0c0" stroke-width="2" points="1618.0084,-248.4135 1607.5157,-249.8806 1616.6331,-255.2771 1618.0084,-248.4135"/>
</g>
<!-- 40&#45;&gt;46 -->
<g id="edge73" class="edge">
<title>40&#45;&gt;46</title>
<path fill="none" stroke="#c0c0c0" stroke-width="2" d="M2111.3097,-290.1844C2108.3498,-289.3687 2105.3941,-288.6285 2102.5,-288 1939.9571,-252.7005 1890.3181,-286.1578 1723.6327,-251.9372"/>
<polygon fill="#c0c0c0" stroke="#c0c0c0" stroke-width="2" points="1724.0368,-248.4456 1713.5303,-249.8105 1722.5948,-255.2955 1724.0368,-248.4456"/>
</g>
<!-- 40&#45;&gt;47 -->
<g id="edge75" class="edge">
<title>40&#45;&gt;47</title>
<path fill="none" stroke="#c0c0c0" stroke-width="2" d="M2111.2822,-290.3055C2108.3289,-289.4606 2105.3822,-288.6808 2102.5,-288 1986.1164,-260.5111 1950.0139,-278.8567 1829.5349,-251.9727"/>
<polygon fill="#c0c0c0" stroke="#c0c0c0" stroke-width="2" points="1830.0869,-248.5085 1819.5578,-249.6872 1828.5238,-255.3318 1830.0869,-248.5085"/>
</g>
<!-- 40&#45;&gt;48 -->
<g id="edge77" class="edge">
<title>40&#45;&gt;48</title>
<path fill="none" stroke="#c0c0c0" stroke-width="2" d="M2111.4976,-290.661C2108.4654,-289.7194 2105.4445,-288.8218 2102.5,-288 2031.9659,-268.3143 2009.9086,-271.9583 1935.4732,-252.0962"/>
<polygon fill="#c0c0c0" stroke="#c0c0c0" stroke-width="2" points="1936.1954,-248.6655 1925.6271,-249.4151 1934.3561,-255.4196 1936.1954,-248.6655"/>
</g>
<!-- 40&#45;&gt;49 -->
<g id="edge79" class="edge">
<title>40&#45;&gt;49</title>
<path fill="none" stroke="#c0c0c0" stroke-width="2" d="M2112.3588,-287.8314C2090.0236,-278.2018 2062.4064,-266.295 2038.829,-256.1299"/>
<polygon fill="#c0c0c0" stroke="#c0c0c0" stroke-width="2" points="2039.9067,-252.7831 2029.3381,-252.038 2037.1353,-259.2112 2039.9067,-252.7831"/>
</g>
<!-- 40&#45;&gt;50 -->
<g id="edge81" class="edge">
<title>40&#45;&gt;50</title>
<path fill="none" stroke="#c0c0c0" stroke-width="2" d="M2139.1071,-287.8314C2132.0096,-279.454 2123.452,-269.3531 2115.676,-260.1749"/>
<polygon fill="#c0c0c0" stroke="#c0c0c0" stroke-width="2" points="2118.2348,-257.7807 2109.1001,-252.4133 2112.8939,-262.3056 2118.2348,-257.7807"/>
</g>
<!-- 40&#45;&gt;51 -->
<g id="edge83" class="edge">
<title>40&#45;&gt;51</title>
<path fill="none" stroke="#c0c0c0" stroke-width="2" d="M2165.8554,-287.8314C2170.9326,-279.7079 2177.0227,-269.9637 2182.6176,-261.0118"/>
<polygon fill="#c0c0c0" stroke="#c0c0c0" stroke-width="2" points="2185.6597,-262.7483 2187.9917,-252.4133 2179.7237,-259.0383 2185.6597,-262.7483"/>
</g>
<!-- 40&#45;&gt;52 -->
<g id="edge85" class="edge">
<title>40&#45;&gt;52</title>
<path fill="none" stroke="#c0c0c0" stroke-width="2" d="M2192.6037,-287.8314C2212.6195,-278.2874 2237.3267,-266.5065 2258.5194,-256.4013"/>
<polygon fill="#c0c0c0" stroke="#c0c0c0" stroke-width="2" points="2260.1503,-259.5013 2267.6703,-252.038 2257.1375,-253.1828 2260.1503,-259.5013"/>
</g>
<!-- 40&#45;&gt;53 -->
<g id="edge87" class="edge">
<title>40&#45;&gt;53</title>
<path fill="none" stroke="#c0c0c0" stroke-width="2" d="M2197.7232,-295.4744C2237.077,-285.6866 2296.9668,-270.282 2357.5933,-252.1827"/>
<polygon fill="#c0c0c0" stroke="#c0c0c0" stroke-width="2" points="2358.7586,-255.4872 2367.3267,-249.2552 2356.7424,-248.7838 2358.7586,-255.4872"/>
</g>
<!-- 41 -->
<g id="node42" class="node">
<title>41</title>
<path fill="none" stroke="#56d8c9" stroke-width="2" d="M2137,-396C2137,-396 2058,-396 2058,-396 2052,-396 2046,-390 2046,-384 2046,-384 2046,-372 2046,-372 2046,-366 2052,-360 2058,-360 2058,-360 2137,-360 2137,-360 2143,-360 2149,-366 2149,-372 2149,-372 2149,-384 2149,-384 2149,-390 2143,-396 2137,-396"/>
<text text-anchor="middle" x="2097.5" y="-375" font-family="sans" font-size="10.00" fill="#000000">create_gentrome</text>
</g>
<!-- 41&#45;&gt;40 -->
<g id="edge64" class="edge">
<title>41&#45;&gt;40</title>
<path fill="none" stroke="#c0c0c0" stroke-width="2" d="M2111.8835,-359.8314C2118.4486,-351.5386 2126.3507,-341.557 2133.5578,-332.4533"/>
<polygon fill="#c0c0c0" stroke="#c0c0c0" stroke-width="2" points="2136.4599,-334.4262 2139.9228,-324.4133 2130.9716,-330.0813 2136.4599,-334.4262"/>
</g>
<!-- 42 -->
<g id="node43" class="node">
<title>42</title>
<path fill="none" stroke="#9fd856" stroke-width="2" d="M2244,-396C2244,-396 2179,-396 2179,-396 2173,-396 2167,-390 2167,-384 2167,-384 2167,-372 2167,-372 2167,-366 2173,-360 2179,-360 2179,-360 2244,-360 2244,-360 2250,-360 2256,-366 2256,-372 2256,-372 2256,-384 2256,-384 2256,-390 2250,-396 2244,-396"/>
<text text-anchor="middle" x="2211.5" y="-375" font-family="sans" font-size="10.00" fill="#000000">create_decoys</text>
</g>
<!-- 42&#45;&gt;40 -->
<g id="edge65" class="edge">
<title>42&#45;&gt;40</title>
<path fill="none" stroke="#c0c0c0" stroke-width="2" d="M2197.1165,-359.8314C2190.5514,-351.5386 2182.6493,-341.557 2175.4422,-332.4533"/>
<polygon fill="#c0c0c0" stroke="#c0c0c0" stroke-width="2" points="2178.0284,-330.0813 2169.0772,-324.4133 2172.5401,-334.4262 2178.0284,-330.0813"/>
</g>
<!-- 43&#45;&gt;0 -->
<g id="edge3" class="edge">
<title>43&#45;&gt;0</title>
<path fill="none" stroke="#c0c0c0" stroke-width="2" d="M1379.2794,-215.8417C1428.6545,-184.0473 1535.5402,-117.3687 1631.5,-72 1667.0661,-55.1848 1709.3943,-39.8373 1738.9185,-29.8384"/>
<polygon fill="#c0c0c0" stroke="#c0c0c0" stroke-width="2" points="1740.0417,-33.1534 1748.412,-26.6581 1737.8181,-26.5159 1740.0417,-33.1534"/>
</g>
<!-- 44&#45;&gt;0 -->
<g id="edge4" class="edge">
<title>44&#45;&gt;0</title>
<path fill="none" stroke="#c0c0c0" stroke-width="2" d="M1481.553,-215.8132C1522.4904,-185.0934 1608.6537,-121.4426 1684.5,-72 1702.2895,-60.4034 1722.5674,-48.2695 1739.4595,-38.448"/>
<polygon fill="#c0c0c0" stroke="#c0c0c0" stroke-width="2" points="1741.5514,-41.2816 1748.4583,-33.2476 1738.0488,-35.2208 1741.5514,-41.2816"/>
</g>
<!-- 45&#45;&gt;0 -->
<g id="edge5" class="edge">
<title>45&#45;&gt;0</title>
<path fill="none" stroke="#c0c0c0" stroke-width="2" d="M1581.2104,-215.9555C1618.9338,-177.5203 1707.2984,-87.4884 1750.6395,-43.3295"/>
<polygon fill="#c0c0c0" stroke="#c0c0c0" stroke-width="2" points="1753.1842,-45.7336 1757.691,-36.1451 1748.1883,-40.8303 1753.1842,-45.7336"/>
</g>
<!-- 46&#45;&gt;0 -->
<g id="edge6" class="edge">
<title>46&#45;&gt;0</title>
<path fill="none" stroke="#c0c0c0" stroke-width="2" d="M1678.3552,-215.9555C1696.9441,-178.0762 1740.1265,-90.0818 1762.1155,-45.274"/>
<polygon fill="#c0c0c0" stroke="#c0c0c0" stroke-width="2" points="1765.332,-46.6643 1766.5955,-36.1451 1759.0479,-43.5804 1765.332,-46.6643"/>
</g>
<!-- 47&#45;&gt;0 -->
<g id="edge7" class="edge">
<title>47&#45;&gt;0</title>
<path fill="none" stroke="#c0c0c0" stroke-width="2" d="M1775.5,-215.9555C1775.5,-178.3938 1775.5,-91.5541 1775.5,-46.4103"/>
<polygon fill="#c0c0c0" stroke="#c0c0c0" stroke-width="2" points="1779.0001,-46.145 1775.5,-36.1451 1772.0001,-46.1451 1779.0001,-46.145"/>
</g>
<!-- 48&#45;&gt;0 -->
<g id="edge8" class="edge">
<title>48&#45;&gt;0</title>
<path fill="none" stroke="#c0c0c0" stroke-width="2" d="M1872.6448,-215.9555C1854.0559,-178.0762 1810.8735,-90.0818 1788.8845,-45.274"/>
<polygon fill="#c0c0c0" stroke="#c0c0c0" stroke-width="2" points="1791.9521,-43.5804 1784.4045,-36.1451 1785.668,-46.6643 1791.9521,-43.5804"/>
</g>
<!-- 49&#45;&gt;0 -->
<g id="edge9" class="edge">
<title>49&#45;&gt;0</title>
<path fill="none" stroke="#c0c0c0" stroke-width="2" d="M1969.7896,-215.9555C1932.0662,-177.5203 1843.7016,-87.4884 1800.3605,-43.3295"/>
<polygon fill="#c0c0c0" stroke="#c0c0c0" stroke-width="2" points="1802.8117,-40.8303 1793.309,-36.1451 1797.8158,-45.7336 1802.8117,-40.8303"/>
</g>
<!-- 50&#45;&gt;0 -->
<g id="edge10" class="edge">
<title>50&#45;&gt;0</title>
<path fill="none" stroke="#c0c0c0" stroke-width="2" d="M2068.224,-215.9117C2025.7071,-185.6017 1937.016,-122.8734 1860.5,-72 1844.5569,-61.3999 1826.7001,-49.9874 1811.4841,-40.3972"/>
<polygon fill="#c0c0c0" stroke="#c0c0c0" stroke-width="2" points="1813.1941,-37.3381 1802.8647,-34.9812 1809.4697,-43.2652 1813.1941,-37.3381"/>
</g>
<!-- 51&#45;&gt;0 -->
<g id="edge11" class="edge">
<title>51&#45;&gt;0</title>
<path fill="none" stroke="#c0c0c0" stroke-width="2" d="M2168.121,-215.7991C2114.1838,-184.7864 2000.0741,-120.365 1900.5,-72 1871.2153,-57.7758 1837.2631,-43.228 1812.1406,-32.8212"/>
<polygon fill="#c0c0c0" stroke="#c0c0c0" stroke-width="2" points="1813.2137,-29.478 1802.6343,-28.9063 1810.5481,-35.9507 1813.2137,-29.478"/>
</g>
<!-- 52&#45;&gt;0 -->
<g id="edge12" class="edge">
<title>52&#45;&gt;0</title>
<path fill="none" stroke="#c0c0c0" stroke-width="2" d="M2269.8689,-215.8788C2206.6327,-184.1417 2070.164,-117.549 1950.5,-72 1903.7107,-54.1901 1848.2748,-37.8602 1812.5294,-27.9273"/>
<polygon fill="#c0c0c0" stroke="#c0c0c0" stroke-width="2" points="1813.1172,-24.4589 1802.5468,-25.1775 1811.2582,-31.2075 1813.1172,-24.4589"/>
</g>
<!-- 53&#45;&gt;0 -->
<g id="edge13" class="edge">
<title>53&#45;&gt;0</title>
<path fill="none" stroke="#c0c0c0" stroke-width="2" d="M2372.3775,-215.9746C2301.0668,-183.6495 2144.6313,-115.1756 2007.5,-72 1939.8401,-50.6974 1858.6947,-33.6988 1812.5102,-24.8002"/>
<polygon fill="#c0c0c0" stroke="#c0c0c0" stroke-width="2" points="1813.1306,-21.3555 1802.6522,-22.9218 1811.8203,-28.2318 1813.1306,-21.3555"/>
</g>
</g>
</svg>
